<?xml version="1.0" standalone="no"?>
<!DOCTYPE svg PUBLIC "-//W3C//DTD SVG 20010904//EN"
 "http://www.w3.org/TR/2001/REC-SVG-20010904/DTD/svg10.dtd">
<svg version="1.0" xmlns="http://www.w3.org/2000/svg"
 width="300.000000pt" height="219.000000pt" viewBox="0 0 300.000000 219.000000"
 preserveAspectRatio="xMidYMid meet">
<metadata>
Created by potrace 1.10, written by Peter Selinger 2001-2011
</metadata>
<g transform="translate(0.000000,219.000000) scale(0.100000,-0.100000)"
fill="#000000" stroke="none">
<path d="M1358 2070 c-75 -39 -185 -142 -193 -181 -4 -16 -15 -33 -24 -39 -24
-12 -56 -181 -47 -252 24 -213 34 -268 53 -306 11 -20 23 -62 26 -92 4 -33 21
-84 43 -127 20 -40 34 -79 31 -86 -3 -8 -20 -17 -37 -20 -17 -4 -40 -17 -50
-29 -11 -13 -19 -18 -20 -11 0 6 6 14 13 16 6 3 -7 6 -30 6 -30 1 -45 -4 -52
-16 -6 -10 -11 -13 -11 -7 0 7 -26 7 -82 1 -66 -7 -88 -14 -109 -33 -14 -13
-29 -24 -35 -24 -5 0 -20 -21 -34 -46 -13 -26 -38 -65 -55 -88 -44 -61 -40
-81 30 -147 69 -64 175 -138 214 -148 18 -5 28 -17 35 -39 5 -18 13 -32 18
-32 5 0 4 9 -2 20 -8 14 -8 20 0 20 6 0 8 6 4 13 -4 7 -3 9 2 4 5 -5 9 -12 10
-15 0 -4 9 -24 19 -45 14 -28 24 -37 37 -34 10 3 21 1 24 -4 3 -5 14 -9 25 -9
12 0 19 -7 19 -20 0 -23 7 -24 46 -10 19 8 30 7 40 -1 12 -9 13 -9 8 4 -3 10
1 17 13 20 17 5 17 5 0 6 -22 1 -17 25 6 29 10 2 17 -3 17 -13 0 -9 6 -15 14
-13 8 2 14 -1 13 -7 -1 -5 -5 -9 -9 -7 -10 3 -9 -17 2 -43 8 -18 9 -17 9 8 1
37 14 34 45 -13 14 -22 29 -40 32 -40 4 0 -1 11 -10 25 -24 37 -19 42 13 11
21 -21 33 -26 45 -19 14 8 13 12 -9 33 l-25 23 20 32 c18 29 18 33 4 51 -8 10
-12 13 -8 5 5 -10 3 -13 -8 -8 -17 6 -19 -16 -3 -30 4 -4 5 -2 1 5 -4 7 -1 12
9 12 13 0 14 -4 5 -20 -6 -11 -15 -18 -20 -15 -5 3 -12 0 -16 -6 -4 -7 -3 -9
3 -6 6 4 11 -3 11 -17 0 -17 -5 -23 -14 -19 -8 3 -14 10 -14 15 0 5 -6 8 -12
6 -7 -3 -20 5 -29 16 -16 19 -16 23 -2 39 9 9 13 17 10 17 -3 0 -15 -10 -27
-22 -20 -22 -21 -21 -24 22 -1 8 -10 16 -21 18 -14 2 -16 1 -7 -6 10 -7 9 -12
-4 -23 -16 -13 -17 -11 -12 19 4 31 -4 47 -27 47 -5 0 -13 18 -16 40 -3 22 -7
30 -8 18 0 -12 -7 -24 -13 -26 -10 -4 -10 -6 0 -6 6 -1 12 -5 12 -11 0 -5 -7
-7 -15 -4 -8 4 -15 14 -15 23 0 12 -2 13 -9 3 -6 -10 -10 -10 -20 2 -10 12 -9
20 3 43 10 20 16 24 19 13 3 -8 8 -22 10 -30 4 -10 6 -7 6 7 1 12 -3 25 -9 28
-15 9 -12 22 11 43 22 21 27 66 14 121 -6 24 -5 32 3 27 6 -3 13 -2 16 2 3 5
-11 8 -30 7 -25 -2 -50 -15 -85 -45 -27 -22 -49 -35 -49 -28 0 7 16 24 34 38
19 14 32 27 30 29 -2 2 -22 -10 -44 -28 -22 -18 -46 -29 -53 -26 -6 4 -4 0 6
-8 10 -8 15 -21 11 -30 -4 -12 2 -18 20 -23 14 -3 24 -9 22 -13 -2 -3 9 -6 24
-6 15 0 26 3 23 8 -2 4 -10 7 -18 7 -8 0 -26 5 -40 10 l-27 10 50 41 c49 38
92 57 92 40 0 -5 -7 -14 -15 -21 -11 -9 -15 -9 -15 -1 0 18 -16 5 -40 -32
l-22 -32 25 27 c14 15 28 24 31 21 3 -3 12 0 21 7 22 18 28 7 14 -24 -9 -19
-15 -23 -21 -14 -5 8 -6 2 -2 -14 4 -20 2 -28 -7 -28 -11 0 -12 -2 -1 -9 11
-6 10 -16 -4 -49 -9 -23 -20 -42 -25 -42 -5 0 -18 14 -31 30 -12 17 -26 30
-32 30 -5 0 5 -15 22 -33 18 -18 30 -36 26 -39 -3 -4 11 -14 30 -23 20 -10 38
-21 41 -25 6 -9 -42 -23 -54 -15 -13 7 -21 -20 -10 -36 7 -12 9 -11 9 2 0 9 9
19 20 22 35 9 24 -29 -12 -44 -18 -7 -37 -15 -41 -17 -4 -2 -5 7 -2 21 5 19 2
25 -14 30 -39 10 -18 35 22 28 5 -1 5 4 1 10 -4 8 0 9 15 4 13 -4 21 -2 21 5
0 6 -4 9 -9 5 -5 -3 -17 2 -25 11 -9 8 -16 12 -16 7 0 -4 -5 0 -11 10 -6 9
-14 15 -20 12 -5 -4 -9 -1 -9 5 0 6 -4 9 -9 6 -5 -3 -12 1 -15 10 -4 9 -9 14
-12 11 -11 -10 -40 28 -36 46 4 16 9 14 40 -15 l36 -33 -34 42 c-19 23 -40 42
-46 42 -5 1 -15 6 -22 13 -9 9 -7 18 11 37 l22 26 -27 -24 c-16 -14 -28 -19
-28 -13 0 31 23 63 61 82 22 12 39 24 36 26 -2 3 -21 -5 -42 -17 l-37 -22 7
24 c12 39 25 49 66 49 38 0 52 -13 27 -23 -10 -4 -10 -6 -1 -6 7 -1 17 8 23
19 6 11 17 20 25 20 27 0 10 -25 -35 -51 -26 -15 -53 -35 -60 -45 -12 -14 -7
-13 17 4 29 21 32 21 36 5 4 -14 5 -13 6 4 1 14 12 28 31 38 17 9 28 21 24 26
-4 8 4 9 27 4 31 -7 32 -6 19 10 -10 12 -25 16 -52 13 -46 -4 -51 9 -5 15 21
2 13 4 -23 5 l-55 2 30 26 30 26 -33 -22 c-32 -21 -35 -40 -6 -40 8 0 14 -4
14 -10 0 -5 -19 -10 -41 -10 -41 0 -41 0 -35 33 5 28 4 29 -6 12 -7 -11 -12
-27 -13 -35 0 -9 -11 -16 -30 -18 l-30 -2 22 19 c25 21 22 31 -7 24 -10 -3
-16 -11 -14 -18 6 -14 -24 -35 -50 -35 -8 0 -40 -19 -71 -41 -55 -42 -68 -56
-41 -46 9 4 16 -4 20 -25 12 -59 8 -64 -24 -33 -16 15 -26 33 -22 39 3 6 7 18
9 26 1 8 8 19 15 25 7 5 14 17 16 24 4 17 26 36 65 53 15 7 27 16 27 19 0 4
25 17 55 30 30 12 55 25 55 28 0 3 13 6 30 7 16 1 27 -2 25 -6 -2 -4 2 -7 10
-7 8 0 11 5 8 10 -4 7 1 8 13 3 10 -4 15 -4 11 0 -9 10 43 35 56 27 6 -4 7 -1
3 6 -5 8 -3 12 5 10 30 -4 60 2 55 10 -6 9 37 24 51 19 5 -2 7 -19 5 -38 -3
-29 10 -37 14 -9 1 5 3 10 4 12 1 1 4 15 6 31 6 53 12 52 91 -13 6 -6 33 -21
60 -33 44 -22 52 -23 102 -12 54 12 150 71 175 106 12 17 14 16 26 -10 8 -15
14 -32 15 -38 0 -6 7 -19 15 -28 8 -10 10 -20 4 -24 -14 -11 -17 -35 -3 -26 9
5 10 2 6 -9 -7 -19 17 -47 40 -47 13 0 14 -2 2 -17 -10 -11 -10 -14 -1 -9 6 4
12 3 12 -3 0 -6 10 -15 21 -22 15 -8 19 -8 15 0 -18 29 53 -9 105 -56 21 -19
39 -32 39 -28 0 4 -17 23 -37 41 -23 20 -32 33 -23 34 13 0 13 1 0 10 -8 5
-19 10 -25 10 -5 0 -3 -5 5 -10 8 -5 11 -10 5 -10 -5 0 -16 4 -23 9 -23 14 11
21 54 10 22 -4 56 -9 76 -9 30 0 40 -5 52 -27 13 -25 12 -31 -6 -63 l-20 -35
24 29 c24 28 26 29 36 10 6 -10 12 -14 12 -9 0 6 -9 25 -20 43 -25 41 -25 44
3 40 20 -3 22 -9 25 -68 l3 -66 -36 -13 c-20 -7 -34 -15 -32 -17 2 -3 16 1 31
7 61 28 38 -20 -25 -52 -48 -24 -52 -24 -45 4 3 12 -4 3 -15 -21 -14 -30 -25
-42 -35 -38 -10 4 -12 2 -8 -6 5 -8 2 -9 -10 -5 -11 5 -15 3 -10 -4 4 -7 1
-10 -7 -7 -8 3 -13 12 -13 21 1 13 -2 14 -18 6 -14 -7 -23 -7 -34 1 -12 11
-11 16 4 42 9 17 23 32 29 35 7 3 11 9 8 13 -3 4 6 18 18 31 28 29 40 56 27
64 -6 4 -10 -2 -10 -11 0 -15 -4 -14 -27 8 -35 31 -103 82 -103 76 0 -3 27
-27 60 -53 33 -26 60 -52 60 -56 0 -4 -24 -16 -52 -27 -100 -37 -96 -37 -101
0 l-4 33 -1 -33 c-3 -43 13 -48 77 -22 64 25 69 25 46 0 -10 -11 -25 -20 -34
-20 -14 0 -14 -2 -1 -10 12 -7 12 -12 2 -22 -9 -9 -15 -8 -25 7 -10 13 -21 16
-40 11 -14 -3 -29 -2 -32 4 -3 5 -12 10 -18 10 -9 0 -9 -2 0 -8 8 -5 10 -23 5
-56 -7 -50 -27 -72 -35 -39 -4 13 -5 12 -7 -7 -1 -14 -2 -31 -1 -37 1 -7 -5
-13 -13 -13 -10 0 -13 -7 -11 -21 3 -17 0 -19 -18 -14 -16 5 -18 4 -8 -3 11
-8 9 -12 -10 -23 -13 -7 -28 -12 -32 -11 -5 1 -6 -2 -2 -8 7 -11 13 -8 58 22
15 11 25 23 22 28 -8 13 25 28 46 23 12 -3 19 0 19 8 0 11 2 11 10 -1 7 -11
10 -11 10 -2 0 7 5 10 12 6 6 -4 8 -3 5 3 -4 6 -1 13 6 16 10 4 14 -5 15 -30
1 -36 0 -36 -56 -16 -8 4 -10 -1 -5 -13 7 -18 6 -18 -20 -1 l-27 17 0 -28 c0
-24 -9 -35 -51 -61 -28 -17 -52 -31 -53 -31 -2 0 -2 12 0 28 2 15 -2 8 -8 -16
-6 -23 -14 -42 -18 -42 -13 0 -28 47 -19 61 5 8 9 19 9 24 0 6 -12 -11 -27
-37 -27 -48 -50 -57 -33 -13 5 14 6 25 1 25 -15 0 -23 -51 -10 -66 10 -13 15
-11 29 11 l17 26 18 -28 18 -27 10 22 c6 13 16 21 24 18 8 -3 12 -2 9 3 -3 4
6 13 20 20 20 9 32 8 57 -4 29 -14 30 -14 13 0 -11 8 -24 15 -30 15 -5 0 -1 8
10 18 29 28 54 16 55 -27 l2 -36 6 35 c6 33 8 35 44 34 35 -1 41 4 38 32 -1 8
13 10 39 7 29 -4 40 -1 40 9 1 23 34 52 101 87 35 19 90 48 121 65 32 17 58
35 58 40 0 4 -11 1 -25 -8 -18 -12 -23 -13 -19 -3 3 8 23 24 44 36 30 16 40
29 40 47 0 13 5 33 12 43 9 15 8 24 -5 45 -21 32 -21 37 1 29 9 -3 0 9 -21 26
-20 18 -51 52 -68 77 -16 24 -38 44 -47 44 -10 0 -26 6 -37 14 -19 13 -81 26
-215 46 -128 19 -149 47 -98 129 19 31 32 72 39 117 7 43 18 77 31 90 14 16
21 41 25 90 3 38 11 87 18 109 30 89 37 158 26 256 -16 159 -62 224 -221 311
-71 39 -80 41 -175 45 -95 3 -103 2 -157 -27z m212 0 c0 -4 23 -13 50 -20 42
-10 49 -15 39 -26 -10 -12 -9 -13 5 -8 13 5 15 2 9 -12 -5 -15 -4 -17 8 -8 10
7 23 5 49 -8 27 -14 30 -18 15 -19 -16 -1 -15 -2 5 -8 14 -4 25 -14 24 -22 -1
-9 7 -15 18 -15 12 1 32 -16 51 -42 26 -35 33 -56 38 -115 4 -41 3 -77 -3 -84
-6 -7 -5 -14 2 -18 6 -3 8 -11 4 -16 -3 -6 -8 -40 -9 -75 -2 -37 -10 -76 -19
-89 -9 -13 -16 -33 -16 -45 0 -11 -5 -20 -11 -20 -8 0 -8 -5 1 -15 7 -8 10
-22 6 -30 -3 -9 -2 -13 4 -10 11 7 13 -6 4 -29 -3 -9 -12 -16 -20 -16 -8 0
-13 -3 -13 -7 3 -20 -2 -34 -10 -28 -9 5 -27 -77 -23 -102 2 -7 -6 -13 -16
-13 -16 0 -19 -6 -16 -31 3 -20 0 -28 -8 -23 -7 4 -8 3 -4 -5 4 -6 -2 -26 -13
-45 -11 -18 -17 -36 -13 -40 4 -4 3 -7 -3 -6 -24 5 -33 -2 -40 -27 -4 -16 -10
-22 -12 -16 -3 9 -19 5 -56 -13 -78 -40 -151 -43 -223 -10 -72 33 -104 62
-104 93 0 13 -5 23 -11 23 -6 0 -8 8 -4 19 3 12 0 21 -10 25 -9 3 -13 10 -10
16 8 14 -4 52 -15 45 -10 -6 -17 16 -19 58 0 16 -4 34 -8 40 -4 7 -8 14 -8 17
-3 19 -18 50 -25 50 -4 0 -8 16 -8 35 0 19 4 32 9 29 10 -6 12 7 3 30 -3 9
-10 14 -15 11 -4 -3 -6 3 -4 13 2 10 -3 43 -11 73 -20 73 -11 215 18 275 11
24 24 44 28 44 5 0 11 13 15 29 6 27 76 98 124 125 9 5 22 16 29 23 7 7 20 13
28 13 9 0 12 5 8 12 -4 6 -3 8 3 5 5 -3 27 -1 47 5 23 7 40 8 44 2 10 -13 42
-17 42 -5 0 5 -8 11 -17 14 -10 2 1 4 25 4 23 1 42 -3 42 -7z m217 -1126 c5
-13 17 -14 72 -8 36 3 63 3 60 0 -4 -4 -21 -8 -38 -8 -28 -1 -29 -2 -13 -14 9
-7 22 -13 27 -14 6 0 3 5 -5 10 -12 8 -11 10 7 10 12 0 30 3 40 6 13 4 14 3 5
-3 -9 -7 2 -10 33 -12 76 -3 93 -6 89 -12 -3 -6 8 -10 59 -24 4 -2 11 -3 16
-4 15 -2 20 -28 5 -28 -7 0 -10 5 -7 10 3 6 1 7 -6 3 -6 -4 -46 6 -88 23 -42
17 -78 29 -80 27 -3 -2 5 -7 16 -11 12 -3 21 -11 21 -16 0 -5 8 -9 18 -9 9 0
30 -9 46 -19 16 -11 35 -17 42 -14 23 9 75 -28 90 -64 8 -19 13 -40 11 -46 -5
-15 -62 51 -62 71 0 10 -8 16 -18 16 -9 -1 -14 3 -10 9 4 6 0 8 -11 4 -14 -6
-122 37 -136 54 -6 8 -47 29 -55 29 -3 0 -3 -4 0 -10 3 -5 0 -10 -7 -10 -23 0
15 -20 38 -20 12 0 33 -9 48 -21 15 -12 31 -17 38 -13 9 6 9 3 -1 -9 -7 -9
-11 -18 -7 -18 3 -1 9 -2 14 -3 4 0 21 -11 37 -23 24 -18 26 -22 11 -23 -10 0
-25 8 -33 18 -8 9 -11 11 -7 3 6 -12 -3 -13 -52 -6 -71 9 -98 9 -141 2 -20 -4
-33 -2 -33 5 0 6 10 8 23 6 13 -2 29 2 37 10 12 13 10 14 -17 9 -31 -6 -86 13
-99 35 -4 6 2 6 15 -1 25 -14 27 -8 4 14 -14 14 -14 20 -4 37 7 11 8 17 2 13
-6 -3 -11 -3 -11 2 0 4 -3 18 -6 31 -7 25 13 31 23 6z m-683 -12 c9 -15 -68
-52 -84 -42 -21 13 -33 12 -24 -2 4 -7 3 -8 -5 -4 -11 7 -171 -72 -171 -85 0
-4 -8 -10 -17 -13 -15 -6 -15 -5 1 13 10 10 19 28 20 38 2 10 7 18 12 19 5 0
25 8 44 16 19 9 50 19 69 23 22 5 29 10 21 15 -7 4 9 6 36 4 55 -4 87 3 79 17
-4 5 -2 9 4 9 5 0 12 -4 15 -8z m977 -118 c17 -8 37 -13 44 -10 9 3 12 0 8
-10 -3 -8 5 -23 18 -35 l24 -20 -25 7 c-14 4 -43 22 -64 40 -21 18 -43 31 -49
27 -6 -3 -7 -1 -3 5 9 15 11 15 47 -4z m-1121 -68 c-4 -13 -14 -43 -21 -67
l-12 -44 -16 60 c-18 65 -14 75 31 75 25 0 27 -2 18 -24z m1274 3 c-3 -5 0
-16 6 -24 6 -8 9 -18 6 -24 -3 -5 0 -11 6 -14 10 -4 11 -7 1 -18 -11 -11 -13
-11 -15 2 -2 24 -5 33 -15 59 -11 27 -7 44 8 34 5 -3 7 -10 3 -15z m-1344 -15
c15 -38 13 -41 -32 -58 -39 -15 -26 -15 27 0 17 4 22 -2 32 -38 6 -24 10 -45
7 -47 -2 -3 -21 11 -42 30 -29 27 -32 28 -12 5 l25 -29 -27 7 c-41 9 -34 -1
10 -15 42 -13 92 -46 92 -60 0 -5 -40 11 -89 35 -78 40 -89 49 -95 77 -10 51
-7 63 15 78 19 11 21 11 15 -4 -8 -22 -18 -74 -10 -55 4 8 23 33 43 55 21 24
25 30 9 16 -29 -26 -35 -23 -18 10 15 27 39 24 50 -7z m1340 -77 c8 -39 8 -52
-2 -58 -19 -12 -23 -2 -8 18 7 10 -3 1 -22 -19 -37 -38 -138 -96 -138 -78 0 5
6 10 13 10 7 0 44 29 82 65 39 36 65 65 59 65 -6 0 -19 -9 -29 -20 -10 -11
-22 -17 -28 -13 -5 3 -7 1 -3 -5 3 -6 2 -13 -4 -17 -6 -4 -10 19 -10 64 l0 69
39 -15 c36 -14 41 -20 51 -66z m-1018 -42 c-4 -17 -12 -31 -19 -32 -9 -2 -10
4 -2 24 20 53 32 58 21 8z m-232 -47 c0 -30 -20 -20 -36 17 -20 48 -18 52 11
25 14 -13 25 -32 25 -42z m-97 -14 c80 -40 82 -42 75 -49 -7 -8 -132 51 -147
69 -19 23 -9 20 72 -20z m977 -71 c13 -36 23 -72 23 -80 0 -8 7 -11 19 -7 12
4 18 0 18 -11 0 -20 -30 -32 -40 -16 -4 7 -10 12 -14 12 -20 -3 -24 2 -24 34
0 19 4 35 9 35 5 0 9 4 9 10 0 5 -6 7 -14 4 -8 -3 -16 0 -19 8 -2 7 -3 5 -1
-5 3 -20 -23 -36 -66 -42 -34 -4 -39 5 -11 22 14 9 21 9 23 2 2 -7 10 -3 18 7
9 11 10 15 3 10 -21 -12 -20 63 1 76 29 19 43 6 66 -59z m288 51 c-19 -18
-163 -103 -167 -98 -3 3 4 14 16 24 12 9 19 20 16 24 -4 3 3 6 15 6 16 0 20 5
16 18 -4 13 -4 14 4 4 8 -11 16 -10 48 7 37 19 64 27 52 15z m-1173 -64 c4 -6
11 -8 16 -4 6 3 4 11 -6 18 -10 7 -14 18 -9 29 7 20 20 23 22 5 1 -7 4 -25 8
-40 5 -24 3 -26 -19 -24 -13 2 -42 16 -63 31 -61 45 -63 49 -7 21 28 -14 54
-30 58 -36z m100 -4 c29 -18 34 -24 21 -29 -9 -4 -30 -4 -47 0 -26 5 -30 10
-26 29 2 13 0 24 -5 24 -5 0 -6 5 -2 11 5 8 9 8 14 -1 4 -6 24 -22 45 -34z
m839 -18 c-3 -4 -12 -8 -20 -8 -17 0 -19 27 -1 33 14 5 28 -13 21 -25z m46 2
c-21 -17 -22 -19 -5 -14 18 5 18 4 4 -8 -9 -7 -18 -20 -22 -28 -3 -8 -6 -1 -6
16 -1 23 5 34 22 42 33 16 35 14 7 -8z m-702 -77 c-3 -33 -7 -39 -33 -45 l-30
-7 33 3 c17 1 32 -1 32 -5 0 -5 -15 -12 -32 -17 -32 -8 -33 -8 -36 26 -2 21 2
38 9 43 16 10 31 1 23 -13 -4 -6 -2 -8 3 -5 6 4 8 18 5 32 -3 19 0 25 12 25
14 0 17 -8 14 -37z m512 -33 c0 -6 -9 -10 -20 -10 -13 0 -20 7 -20 20 0 18 3
19 20 10 11 -6 20 -15 20 -20z m48 24 c23 -7 31 -34 10 -34 -15 1 -48 24 -48
34 0 7 8 7 38 0z"/>
<path d="M1451 1973 c-13 -15 -13 -16 7 -11 14 4 31 -1 47 -14 14 -11 25 -16
25 -13 0 4 8 -2 18 -14 12 -15 21 -18 32 -11 12 7 12 10 1 10 -7 0 -26 11 -43
25 -16 14 -36 25 -44 25 -8 0 -14 5 -14 10 0 15 -13 12 -29 -7z"/>
<path d="M1276 1832 c-4 -12 -11 -20 -15 -18 -4 3 -8 -7 -9 -22 -1 -15 -7 -28
-12 -30 -6 -2 -10 -8 -10 -13 0 -6 7 -6 19 0 10 6 21 7 25 4 3 -3 6 -1 6 5 0
7 -4 12 -10 12 -16 0 -12 28 6 38 9 5 14 17 12 28 -4 17 -5 17 -12 -4z"/>
<path d="M1203 1531 c-2 -22 2 -43 7 -46 6 -3 7 1 4 10 -4 8 -1 21 5 28 8 10
7 18 -2 30 -10 15 -12 12 -14 -22z"/>
<path d="M1273 1468 c-18 -4 -33 -10 -33 -11 0 -1 35 -2 78 -2 84 0 134 -17
140 -49 3 -11 0 -16 -7 -12 -7 5 -9 1 -5 -9 4 -8 1 -22 -6 -30 -7 -8 -9 -15
-6 -15 15 0 -20 -26 -52 -39 -21 -9 -51 -12 -82 -8 -31 4 -52 2 -56 -5 -4 -6
-3 -8 4 -4 6 3 15 -2 21 -11 7 -13 13 -15 21 -7 7 7 24 9 43 5 64 -13 137 55
137 129 0 15 7 20 25 20 21 0 25 -5 25 -30 0 -41 0 -43 12 -57 5 -7 6 -18 2
-24 -4 -7 -3 -9 3 -6 6 4 22 -2 36 -13 14 -11 39 -20 56 -20 17 0 31 -4 31
-10 0 -6 9 -6 26 0 14 6 30 7 36 4 6 -4 8 -2 5 3 -4 6 -1 13 7 16 15 6 30 50
14 45 -5 -2 -10 -8 -11 -13 -2 -16 -47 -35 -84 -35 -23 0 -32 4 -27 12 5 8 2
9 -10 5 -27 -10 -79 46 -71 75 5 18 4 20 -4 8 -9 -12 -11 -10 -11 11 0 34 14
45 70 55 54 10 76 10 112 1 22 -6 27 -4 25 12 0 11 -6 17 -11 13 -6 -3 -38 -5
-71 -5 -39 1 -76 -5 -101 -16 -43 -20 -64 -20 -107 -2 -16 6 -35 11 -43 11 -8
0 -14 3 -14 8 0 10 -80 11 -117 0z"/>
<path d="M1246 1398 c3 -5 8 -7 11 -4 7 6 28 -15 35 -34 3 -11 6 -11 11 3 3 9
2 17 -3 17 -5 0 -8 6 -6 13 1 6 1 9 -1 4 -3 -4 -10 -4 -16 0 -18 11 -38 12
-31 1z"/>
<path d="M1417 1255 c-4 -8 -11 -14 -16 -13 -13 4 -11 -14 4 -35 17 -25 73
-39 120 -30 22 4 44 7 50 7 15 1 18 33 6 53 -9 15 -10 13 -5 -10 7 -28 6 -29
-30 -24 -19 3 -33 1 -30 -4 3 -5 -6 -9 -20 -9 -14 0 -26 5 -26 11 0 7 -10 9
-25 5 -30 -8 -44 16 -25 39 7 9 11 18 8 21 -3 3 -8 -2 -11 -11z"/>
<path d="M1543 1059 c-14 -14 -64 -19 -85 -8 -10 5 -19 5 -22 0 -14 -23 96
-28 114 -6 15 18 9 30 -7 14z"/>
<path d="M1251 879 c-13 -11 -21 -22 -18 -26 4 -3 -5 -17 -19 -30 -36 -33 -25
-38 19 -8 25 17 35 20 31 10 -4 -8 -2 -15 4 -15 6 0 10 20 9 45 -1 25 -2 45
-2 45 0 -1 -11 -10 -24 -21z"/>
<path d="M1336 828 c5 -7 9 -21 9 -31 1 -10 8 -23 16 -28 8 -5 10 -9 5 -9 -12
0 14 -30 27 -30 6 0 2 7 -9 16 -19 15 -19 16 1 10 15 -5 13 -1 -7 15 -28 20
-40 47 -15 33 6 -4 3 2 -7 14 -21 24 -32 29 -20 10z"/>
<path d="M1752 694 c-8 -38 -8 -62 -2 -68 8 -8 14 26 9 60 0 4 3 10 8 13 5 3
7 17 4 30 -5 18 -9 11 -19 -35z"/>
<path d="M1984 717 c21 -21 40 -37 41 -37 1 0 2 15 2 33 0 17 -2 24 -4 15 -6
-23 -8 -23 -46 4 -28 18 -27 16 7 -15z"/>
<path d="M1839 697 c24 -25 40 -50 37 -56 -4 -7 -1 -9 8 -5 14 5 14 8 0 29 -9
13 -32 36 -52 51 -37 27 -36 27 7 -19z"/>
<path d="M1727 713 c-4 -3 -7 -14 -7 -24 0 -10 -8 -23 -17 -29 -17 -11 -17
-11 0 -6 13 4 17 -1 17 -22 0 -16 -5 -33 -10 -38 -8 -8 -6 -15 5 -24 10 -8 15
-9 15 -1 0 6 -6 11 -12 11 -10 0 -10 2 -1 8 9 5 25 132 17 132 0 0 -4 -3 -7
-7z"/>
<path d="M2060 611 c-31 -26 -35 -28 -48 -12 -11 14 -12 13 -2 -7 l11 -23 40
31 c33 27 46 41 37 40 -2 0 -19 -13 -38 -29z"/>
<path d="M1617 599 c20 -25 71 -50 78 -39 3 5 -3 10 -14 10 -11 0 -23 4 -26
10 -3 5 -16 15 -28 22 -19 9 -20 9 -10 -3z"/>
<path d="M1556 563 c-27 -25 -35 -38 -27 -46 6 -6 11 -17 11 -25 0 -12 -3 -12
-17 -1 -16 13 -17 12 -4 -3 10 -14 11 -25 2 -49 -14 -40 -14 -39 7 -38 9 0 12
3 5 5 -8 4 -6 17 7 47 14 30 16 45 8 54 -20 24 7 13 45 -18 20 -17 37 -39 37
-50 0 -11 4 -18 9 -15 18 12 -1 42 -48 76 l-49 35 30 28 c17 15 29 30 27 32
-2 2 -21 -12 -43 -32z"/>
<path d="M1316 558 c5 -16 -1 -18 -49 -18 -30 0 -58 5 -60 10 -3 6 -4 5 -3 -2
1 -7 17 -14 34 -16 26 -3 30 -6 23 -20 -5 -9 -5 -26 0 -37 8 -21 10 -17 12 24
3 38 52 47 80 15 l22 -24 45 40 c25 22 40 40 34 40 -5 0 -25 -16 -44 -35 l-35
-36 -32 38 c-18 21 -30 30 -27 21z"/>
<path d="M1916 525 c-45 -40 -39 -48 6 -10 16 14 33 23 37 21 4 -3 8 1 8 9 0
21 -7 18 -51 -20z"/>
<path d="M1705 541 c-33 -7 -47 -44 -25 -65 9 -8 11 -3 5 22 -6 29 -5 32 19
32 13 0 28 5 31 10 3 6 5 9 3 9 -2 -1 -16 -4 -33 -8z"/>
<path d="M1420 499 l-35 -31 32 22 c18 12 38 18 44 14 8 -5 9 -3 4 6 -6 10 -4
12 9 7 10 -4 15 -3 11 3 -10 17 -28 11 -65 -21z"/>
<path d="M1290 473 c0 -17 -6 -34 -12 -36 -10 -4 -10 -6 0 -6 6 -1 12 -8 12
-16 0 -8 4 -15 10 -15 6 0 7 19 3 48 -7 56 -13 67 -13 25z"/>
<path d="M1582 462 c25 -17 26 -18 12 -57 -7 -22 -13 -47 -13 -55 1 -8 9 10
19 40 18 55 18 55 -3 72 -12 10 -26 18 -32 18 -5 0 2 -8 17 -18z"/>
<path d="M1495 370 c3 -5 1 -10 -6 -10 -10 0 -10 -3 0 -12 11 -11 14 -10 18 0
4 9 8 10 18 2 9 -8 15 -8 20 0 3 6 11 8 16 5 5 -3 6 1 3 9 -7 19 -21 21 -27 4
-4 -10 -7 -10 -18 0 -16 14 -33 16 -24 2z"/>
</g>
</svg>
